<svg version="1.0" xmlns="http://www.w3.org/2000/svg" width="61" height="67" viewBox="0 0 610 670"><g fill="#41636d"><path d="M213 652C107 614 45 548 14 441-26 305 50 149 185 89c69-30 171-30 241 0 190 83 240 343 93 490-76 76-208 108-306 73zm169-32c21-6 57-25 80-43 131-100 144-282 29-397-106-106-266-106-372 0-193 193-1 513 263 440z"/><path d="M285 390c-6-10 95-194 103-186 2 3-3 24-13 48l-17 43 36-34c20-19 36-31 36-27s-25 44-56 87c-52 74-75 92-89 69z"/><path d="M527 328c-11-82-103-174-185-185-50-7-56-23-9-23 98 1 217 121 217 220 0 45-17 36-23-12zM55 139c-8-12 23-49 42-49 18 0 17 25-3 44-18 19-30 20-39 5zm461-5c-20-19-21-44-3-44 19 0 50 37 42 49-9 15-21 14-39-5zM272 28c2-18 10-23 33-23s31 5 33 23c3 19-1 22-33 22s-36-3-33-22z"/></g><g fill="#0094d1"><path d="M285 390c-6-10 95-194 103-186 2 3-3 24-13 48l-17 43 36-34c20-19 36-31 36-27s-25 44-56 87c-52 74-75 92-89 69z"/><path d="M527 328c-11-82-103-174-185-185-50-7-56-23-9-23 98 1 217 121 217 220 0 45-17 36-23-12z"/></g><path d="M527 328c-11-82-103-174-185-185-50-7-56-23-9-23 98 1 217 121 217 220 0 45-17 36-23-12z" fill="#83949a"/></svg>