<svg version="1.0" xmlns="http://www.w3.org/2000/svg" width="74" height="85" viewBox="0 0 740 850"><g fill="#32325f"><path d="M0 735c0-114 0-114 32-150 33-39 84-68 134-79 18-4 39-15 48-25 15-16 15-19-5-37-43-38-59-91-59-201 0-112 8-144 48-187S279 0 373 0c74 0 88 3 128 29 60 38 81 84 87 187 5 98-15 178-57 223-26 28-27 32-12 44 9 8 41 22 72 31 68 19 124 70 139 126 6 22 10 77 8 123l-3 82-367 3-368 2V735zm285 25c7-53 2-70-21-70-8 0-28-30-45-70-19-41-38-70-46-70-27 0-83 32-108 62-22 26-25 39-25 114v84h238l7-50zm125 38c-1-43-13-58-46-58-20 0-34 5-34 13 0 6-3 22-6 35-6 20-3 22 40 22 30 0 46-4 46-12zm288-68c-5-89-19-118-78-157-57-39-72-32-107 47-19 42-37 70-47 70-8 0-18 9-21 20-6 19 1 75 12 93 2 4 58 7 125 7h121l-5-80zm-291-47c2-6-6-17-18-23-28-16-71 2-63 25 8 19 75 17 81-2zm-93-54l24-11-35-57c-20-31-38-58-40-60-2-3-11 2-20 11-15 15-14 21 7 72 24 60 26 62 64 45zm164-34c26-53 27-68 7-85-12-10-20-2-50 45-20 31-35 58-33 59 8 7 44 25 49 26 3 0 15-20 27-45zm-77-67c9-16 5-18-36-18h-45l22 35c24 37 30 35 59-17zm26-69c58-22 104-82 117-152 6-30 2-46-14-72-25-40-26-41-71-18-43 22-144 21-187-1-41-21-45-21-65 13-32 54-13 146 40 193 46 42 124 58 180 37zm44-298c36-26 43-26 62 2 16 22 16 21 8-9-22-82-72-114-178-114-79 0-121 20-153 72-23 38-28 74-6 45 17-22 22-22 59 5 57 41 152 40 208-1z"/><path d="M500 761c0-18 6-21 51-21 43 0 50 3 47 18-2 13-15 18-51 20-42 3-47 1-47-17zm137 13c-14-15-6-34 14-34 14 0 19 5 17 17-3 18-20 27-31 17zM333 420c-13-5-23-16-23-24 0-11 13-15 55-15 46 0 55 3 55 19 0 26-45 37-87 20zm-68-130c-8-14 3-30 21-30 8 0 14 9 14 20 0 21-24 28-35 10zm167-7c2-10 10-18 18-18s16 8 18 18c2 12-3 17-18 17s-20-5-18-17z"/></g></svg>